<?xml version="1.0" encoding="utf-8"?>
<!-- Generator: Adobe Illustrator 22.1.0, SVG Export Plug-In . SVG Version: 6.00 Build 0)  -->
<svg version="1.1" id="Isolation_Mode" xmlns="http://www.w3.org/2000/svg" xmlns:xlink="http://www.w3.org/1999/xlink" x="0px"
	 y="0px" viewBox="0 0 60.1 77.3" style="enable-background:new 0 0 60.1 77.3;" xml:space="preserve">
<style type="text/css">
	.st0{clip-path:url(#SVGID_2_);}
	.st1{fill:#283585;}
	.st2{fill:#878787;}
	.st3{fill:#FFFFFF;}
	.st4{fill:#008DD4;}
	.st5{fill:#B2B2B2;}
</style>
<g>
	<g>
		<defs>
			<rect id="SVGID_1_" width="60.1" height="77.3"/>
		</defs>
		<clipPath id="SVGID_2_">
			<use xlink:href="#SVGID_1_"  style="overflow:visible;"/>
		</clipPath>
		<g class="st0">
			<path class="st1" d="M20.8,71.7c0,1-0.7,1.8-1.5,1.8h-4.1c-0.8,0-1.5-0.8-1.5-1.8V28.6c0-1,0.7-1.8,1.5-1.8h4.1
				c0.8,0,1.5,0.8,1.5,1.8V71.7z"/>
		</g>
		<g class="st0">
			<path class="st2" d="M22.8,61.8h-0.4c0,0-0.1,0-0.1-0.1v-4.9c0,0,0-0.1,0.1-0.1l0.4-0.1c0,0,0.1,0,0.1,0.1L22.8,61.8
				C22.9,61.8,22.9,61.8,22.8,61.8"/>
		</g>
		<g class="st0">
			<path class="st2" d="M26.5,61.8H25c-0.3,0-0.6-0.1-0.8-0.3c-0.2-0.2-0.3-0.5-0.3-0.8c0-0.3,0.1-0.6,0.3-0.8
				c0.2-0.2,0.5-0.3,0.8-0.3h1.1v-0.4c0-0.2-0.1-0.3-0.2-0.4c-0.1-0.1-0.2-0.2-0.4-0.2c-0.4,0-0.7,0-0.9,0.1c0,0-0.1,0-0.1-0.1v-0.3
				c0,0,0-0.1,0.1-0.1c0.2-0.1,0.5-0.1,0.9-0.1c0.3,0,0.6,0.1,0.8,0.3c0.2,0.2,0.3,0.5,0.3,0.8L26.5,61.8
				C26.6,61.8,26.6,61.8,26.5,61.8 M26.1,60.1H25c-0.2,0-0.3,0.1-0.4,0.2c-0.1,0.1-0.2,0.3-0.2,0.4c0,0.2,0.1,0.3,0.2,0.4
				c0.1,0.1,0.2,0.2,0.4,0.2h1.1V60.1z"/>
		</g>
		<g class="st0">
			<path class="st2" d="M32.5,61.8h-0.4c0,0-0.1,0-0.1-0.1l-1.4-2.4h-0.8v2.4c0,0,0,0.1-0.1,0.1h-0.4c0,0-0.1,0-0.1-0.1v-5
				c0,0,0-0.1,0.1-0.1l2.1,0c0.3,0,0.6,0.1,0.8,0.3c0.2,0.2,0.3,0.5,0.3,0.8v0.5c0,0.3-0.1,0.6-0.3,0.8c-0.2,0.2-0.5,0.3-0.8,0.3
				h-0.3L32.5,61.8C32.6,61.8,32.6,61.8,32.5,61.8 M32,57.8c0-0.2-0.1-0.3-0.2-0.4c-0.1-0.1-0.2-0.2-0.4-0.2h-1.6v1.7h1.6
				c0.2,0,0.3-0.1,0.4-0.2c0.1-0.1,0.2-0.3,0.2-0.4V57.8z"/>
		</g>
		<g class="st0">
			<path class="st2" d="M35.8,60.1c-0.2,0.2-0.5,0.3-0.8,0.3h-1.1v0.4c0,0.2,0.1,0.3,0.2,0.4c0.1,0.1,0.2,0.2,0.4,0.2
				c0.5,0,0.8,0,1.1-0.1c0,0,0.1,0,0.1,0.1v0.3c0,0,0,0.1,0,0.1c-0.2,0.1-0.6,0.1-1.1,0.1c-0.3,0-0.6-0.1-0.8-0.3
				c-0.2-0.2-0.3-0.5-0.3-0.8v-1.5c0-0.3,0.1-0.6,0.3-0.8c0.2-0.2,0.5-0.3,0.8-0.3H35c0.3,0,0.6,0.1,0.8,0.3
				c0.2,0.2,0.3,0.5,0.3,0.8S36,59.9,35.8,60.1 M35.4,58.8c-0.1-0.1-0.2-0.2-0.4-0.2h-0.5c-0.2,0-0.3,0.1-0.4,0.2
				c-0.1,0.1-0.2,0.3-0.2,0.4v0.6H35c0.1,0,0.3-0.1,0.4-0.2c0.1-0.1,0.2-0.3,0.2-0.4C35.5,59.1,35.5,59,35.4,58.8"/>
		</g>
		<g class="st0">
			<path class="st2" d="M38.5,61.8C38.4,61.8,38.4,61.8,38.5,61.8l-0.6,0.1c0,0-0.1,0-0.1-0.1l-1.1-3.5c0,0,0-0.1,0-0.1h0.4
				c0,0,0.1,0,0.1,0.1l0.9,2.8c0,0,0,0,0,0l0.9-2.8c0,0,0-0.1,0.1-0.1h0.4c0,0,0.1,0,0,0.1L38.5,61.8z"/>
		</g>
		<g class="st0">
			<path class="st2" d="M42.8,61.5c-0.2,0.2-0.5,0.3-0.8,0.3h-0.5c-0.3,0-0.6-0.1-0.8-0.3c-0.2-0.2-0.3-0.5-0.3-0.8v-2.5
				c0,0,0-0.1,0.1-0.1h0.4c0,0,0.1,0,0.1,0.1v2.5c0,0.2,0.1,0.3,0.2,0.4c0.1,0.1,0.2,0.2,0.4,0.2H42c0.1,0,0.3-0.1,0.4-0.2
				s0.2-0.3,0.2-0.4v-2.5c0,0,0-0.1,0.1-0.1h0.4c0,0,0.1,0,0.1,0.1v2.5C43.1,61.1,43,61.3,42.8,61.5"/>
		</g>
		<g class="st0">
			<path class="st2" d="M46.6,60.1c-0.2,0.2-0.5,0.3-0.8,0.3h-1.1v0.4c0,0.2,0.1,0.3,0.2,0.4c0.1,0.1,0.2,0.2,0.4,0.2
				c0.5,0,0.8,0,1.1-0.1c0,0,0.1,0,0.1,0.1v0.3c0,0,0,0.1,0,0.1c-0.2,0.1-0.6,0.1-1.1,0.1c-0.3,0-0.6-0.1-0.8-0.3
				c-0.2-0.2-0.3-0.5-0.3-0.8v-1.5c0-0.3,0.1-0.6,0.3-0.8c0.2-0.2,0.5-0.3,0.8-0.3h0.5c0.3,0,0.6,0.1,0.8,0.3
				c0.2,0.2,0.3,0.5,0.3,0.8S46.9,59.9,46.6,60.1 M46.3,58.8c-0.1-0.1-0.2-0.2-0.4-0.2h-0.5c-0.2,0-0.3,0.1-0.4,0.2
				c-0.1,0.1-0.2,0.3-0.2,0.4v0.6h1.1c0.1,0,0.3-0.1,0.4-0.2c0.1-0.1,0.2-0.3,0.2-0.4C46.4,59.1,46.4,59,46.3,58.8"/>
		</g>
		<g class="st0">
			<path class="st2" d="M4.6,70.8C4.6,70.9,4.6,70.9,4.6,70.8l-1.5,0.1c-0.4,0-0.7-0.2-1-0.5c-0.3-0.4-0.4-0.8-0.4-1.3
				c0-0.5,0.1-1,0.4-1.3c0.3-0.4,0.6-0.5,1-0.5H4v-1.3c0,0,0-0.1,0.1-0.1l0.4-0.1c0,0,0.1,0,0.1,0.1L4.6,70.8z M4,67.7H3.1
				c-0.3,0-0.5,0.1-0.7,0.4c-0.2,0.3-0.3,0.6-0.3,1c0,0.4,0.1,0.7,0.3,1c0.2,0.3,0.4,0.4,0.7,0.4H4V67.7z"/>
		</g>
		<g class="st0">
			<path class="st2" d="M8.1,69.1c-0.2,0.2-0.5,0.3-0.8,0.3H6.2v0.4c0,0.2,0.1,0.3,0.2,0.4c0.1,0.1,0.2,0.2,0.4,0.2
				c0.5,0,0.8,0,1.1-0.1c0,0,0.1,0,0.1,0.1v0.3c0,0,0,0.1,0,0.1c-0.2,0.1-0.6,0.1-1.1,0.1c-0.3,0-0.6-0.1-0.8-0.3
				c-0.2-0.2-0.3-0.5-0.3-0.8v-1.5c0-0.3,0.1-0.6,0.3-0.8c0.2-0.2,0.5-0.3,0.8-0.3h0.5c0.3,0,0.6,0.1,0.8,0.3
				c0.2,0.2,0.3,0.5,0.3,0.8C8.4,68.7,8.3,68.9,8.1,69.1 M7.7,67.9c-0.1-0.1-0.2-0.2-0.4-0.2H6.8c-0.2,0-0.3,0.1-0.4,0.2
				c-0.1,0.1-0.2,0.3-0.2,0.4V69h1.1c0.1,0,0.3-0.1,0.4-0.2c0.1-0.1,0.2-0.3,0.2-0.4C7.9,68.2,7.8,68,7.7,67.9"/>
		</g>
		<g class="st0">
			<path class="st2" d="M11.1,70.6c-0.2,0.2-0.5,0.3-0.8,0.3c-0.5,0-0.8,0-1.1-0.1c0,0,0,0,0-0.1v-0.3c0-0.1,0-0.1,0.1-0.1
				c0.3,0.1,0.6,0.1,1,0.1c0.2,0,0.3,0,0.4-0.1c0.1-0.1,0.2-0.2,0.2-0.4c0-0.1-0.1-0.3-0.2-0.3c0,0-0.2-0.1-0.4-0.2
				c-0.4-0.2-0.7-0.3-0.8-0.4c-0.2-0.2-0.3-0.4-0.3-0.7c0-0.3,0.1-0.6,0.3-0.8c0.2-0.2,0.5-0.3,0.8-0.3c0.4,0,0.8,0,1,0.1
				c0,0,0,0,0,0.1v0.3c0,0.1,0,0.1-0.1,0.1c-0.3-0.1-0.6-0.1-1-0.1c-0.2,0-0.3,0-0.4,0.1c-0.1,0.1-0.2,0.2-0.2,0.4
				c0,0.1,0.1,0.3,0.2,0.3c0,0,0.2,0.1,0.4,0.2c0.4,0.2,0.7,0.3,0.8,0.4c0.2,0.2,0.3,0.4,0.3,0.7C11.4,70.2,11.3,70.4,11.1,70.6"/>
		</g>
		<g class="st0">
			<path class="st3" d="M19.7,70.9h-0.5c-0.1,0-0.1,0-0.1-0.1v-4.6l-1.6,4.6c0,0.1-0.1,0.1-0.1,0.1h-0.5c-0.1,0-0.1,0-0.1-0.1
				l-1.6-4.6v4.6c0,0.1,0,0.1-0.1,0.1h-0.5c-0.1,0-0.1,0-0.1-0.1v-6.5c0-0.1,0-0.1,0.1-0.1H15c0,0,0,0,0.1,0c0,0,0,0,0.1,0.1
				l1.9,5.6l1.9-5.6c0,0,0-0.1,0.1-0.1c0,0,0,0,0.1,0h0.5c0.1,0,0.1,0,0.1,0.1L19.7,70.9C19.7,70.9,19.7,70.9,19.7,70.9"/>
		</g>
		<g class="st0">
			<path class="st4" d="M22.1,64.8h-0.9c-0.1,0-0.1,0-0.1-0.1v-0.5c0-0.1,0-0.1,0.1-0.1h0.9c0.1,0,0.1,0,0.1,0.1L22.1,64.8
				C22.2,64.8,22.1,64.8,22.1,64.8 M21.9,70.9h-0.5c-0.1,0-0.1,0-0.1-0.1v-4.6c0-0.1,0-0.1,0.1-0.1h0.5c0.1,0,0.1,0,0.1,0.1
				L21.9,70.9C22,70.9,22,70.9,21.9,70.9"/>
		</g>
		<g class="st0">
			<path class="st4" d="M26.1,66.9c-0.3-0.1-0.8-0.1-1.3-0.1c-0.2,0-0.4,0.1-0.5,0.2c-0.1,0.2-0.2,0.3-0.2,0.6v1.9
				c0,0.2,0.1,0.4,0.2,0.6c0.1,0.2,0.3,0.2,0.5,0.2c0.6,0,1,0,1.3-0.1c0.1,0,0.1,0,0.1,0.1v0.4c0,0,0,0.1-0.1,0.1
				c-0.3,0.1-0.8,0.2-1.4,0.2c-0.4,0-0.7-0.1-1-0.4c-0.3-0.3-0.4-0.6-0.4-1v-1.9c0-0.4,0.1-0.8,0.4-1c0.3-0.3,0.6-0.4,1-0.4
				c0.6,0,1.1,0.1,1.4,0.2c0,0,0.1,0,0.1,0.1L26.1,66.9C26.2,66.9,26.2,66.9,26.1,66.9"/>
		</g>
		<g class="st0">
			<path class="st4" d="M30,66.8c-0.5,0-0.9,0-1.1,0c-0.2,0-0.4,0.1-0.5,0.2c-0.1,0.2-0.2,0.4-0.2,0.6v3.3c0,0.1,0,0.1-0.1,0.1h-0.5
				c-0.1,0-0.1,0-0.1-0.1v-3.3c0-0.4,0.1-0.8,0.4-1c0.3-0.3,0.6-0.4,1-0.4c0.1,0,0.5,0,1.1,0c0.1,0,0.1,0,0.1,0.1v0.4
				C30.1,66.7,30.1,66.8,30,66.8"/>
		</g>
		<g class="st0">
			<path class="st4" d="M33.9,70.5c-0.3,0.3-0.6,0.4-1,0.4h-0.7c-0.4,0-0.7-0.1-1-0.4c-0.3-0.3-0.4-0.6-0.4-1v-1.9
				c0-0.4,0.1-0.8,0.4-1c0.3-0.3,0.6-0.4,1-0.4h0.7c0.4,0,0.7,0.1,1,0.4c0.3,0.3,0.4,0.6,0.4,1v1.9C34.3,69.9,34.1,70.2,33.9,70.5
				 M33.6,67.6c0-0.2-0.1-0.4-0.2-0.6c-0.1-0.2-0.3-0.2-0.5-0.2h-0.7c-0.2,0-0.4,0.1-0.5,0.2c-0.1,0.2-0.2,0.3-0.2,0.6v1.9
				c0,0.2,0.1,0.4,0.2,0.6c0.1,0.2,0.3,0.2,0.5,0.2h0.7c0.2,0,0.4-0.1,0.5-0.2c0.1-0.2,0.2-0.4,0.2-0.6V67.6z"/>
		</g>
		<g class="st0">
			<path class="st4" d="M38.7,70.2c-0.4,0.5-0.8,0.7-1.4,0.7h-0.5c-0.4,0-0.7-0.1-1-0.4c-0.3-0.3-0.4-0.6-0.4-1v-5.1
				c0,0,0-0.1,0.1-0.1l0.5-0.1c0.1,0,0.1,0,0.1,0.1v1.8h1.2c0.5,0,1,0.2,1.4,0.7c0.4,0.5,0.6,1,0.6,1.7
				C39.3,69.2,39.1,69.8,38.7,70.2 M38.2,67.3c-0.2-0.3-0.5-0.5-0.9-0.5l-1.2,0v2.7c0,0.2,0.1,0.4,0.2,0.6c0.1,0.2,0.3,0.2,0.5,0.2
				h0.5c0.3,0,0.6-0.2,0.9-0.5c0.2-0.3,0.4-0.8,0.4-1.3C38.6,68,38.4,67.6,38.2,67.3"/>
		</g>
		<g class="st0">
			<path class="st4" d="M41.4,64.8h-0.9c-0.1,0-0.1,0-0.1-0.1v-0.5c0-0.1,0-0.1,0.1-0.1h0.9c0.1,0,0.1,0,0.1,0.1L41.4,64.8
				C41.5,64.8,41.4,64.8,41.4,64.8 M41.2,70.9h-0.5c-0.1,0-0.1,0-0.1-0.1v-4.6c0-0.1,0-0.1,0.1-0.1h0.5c0.1,0,0.1,0,0.1,0.1
				L41.2,70.9C41.3,70.9,41.3,70.9,41.2,70.9"/>
		</g>
		<g class="st0">
			<path class="st4" d="M45.9,70.5c-0.3,0.3-0.6,0.4-1,0.4h-0.7c-0.4,0-0.7-0.1-1-0.4c-0.3-0.3-0.4-0.6-0.4-1v-1.9
				c0-0.4,0.1-0.8,0.4-1c0.3-0.3,0.6-0.4,1-0.4h0.7c0.4,0,0.7,0.1,1,0.4c0.3,0.3,0.4,0.6,0.4,1v1.9C46.3,69.9,46.1,70.2,45.9,70.5
				 M45.6,67.6c0-0.2-0.1-0.4-0.2-0.6c-0.1-0.2-0.3-0.2-0.5-0.2h-0.7c-0.2,0-0.4,0.1-0.5,0.2c-0.1,0.2-0.2,0.3-0.2,0.6v1.9
				c0,0.2,0.1,0.4,0.2,0.6c0.1,0.2,0.3,0.2,0.5,0.2h0.7c0.2,0,0.4-0.1,0.5-0.2c0.1-0.2,0.2-0.4,0.2-0.6V67.6z"/>
		</g>
		<g class="st0">
			<path class="st4" d="M49.3,70.9l-0.4,0c-0.4,0-0.7-0.1-1-0.4c-0.3-0.3-0.4-0.6-0.4-1.1V65c0,0,0-0.1,0.1-0.1l0.5-0.1
				c0.1,0,0.1,0,0.1,0.1v1.2h1.1c0.1,0,0.1,0,0.1,0.1v0.4c0,0.1,0,0.1-0.1,0.1h-1.1v2.7c0,0.2,0.1,0.4,0.2,0.6
				c0.1,0.2,0.3,0.2,0.5,0.2h0.4c0.1,0,0.1,0,0.1,0.1L49.3,70.9C49.4,70.8,49.4,70.9,49.3,70.9"/>
		</g>
		<g class="st0">
			<path class="st4" d="M53.6,68.6c-0.3,0.3-0.6,0.4-1,0.4h-1.4v0.5c0,0.2,0.1,0.4,0.2,0.6c0.1,0.2,0.3,0.2,0.5,0.2
				c0.6,0,1.1,0,1.4-0.1c0.1,0,0.1,0,0.1,0.1v0.4c0,0,0,0.1-0.1,0.1c-0.3,0.1-0.8,0.2-1.5,0.2c-0.4,0-0.7-0.1-1-0.4
				c-0.3-0.3-0.4-0.6-0.4-1v-1.9c0-0.4,0.1-0.8,0.4-1c0.3-0.3,0.6-0.4,1-0.4h0.7c0.4,0,0.7,0.1,1,0.4c0.3,0.3,0.4,0.6,0.4,1
				C54,68,53.9,68.3,53.6,68.6 M53.1,67c-0.1-0.2-0.3-0.2-0.5-0.2h-0.7c-0.2,0-0.4,0.1-0.5,0.2c-0.1,0.2-0.2,0.3-0.2,0.6v0.8h1.4
				c0.2,0,0.4-0.1,0.5-0.2c0.1-0.2,0.2-0.3,0.2-0.6C53.3,67.3,53.2,67.2,53.1,67"/>
		</g>
		<g class="st0">
			<path class="st4" d="M57.4,70.5c-0.3,0.2-0.6,0.4-1,0.4c-0.6,0-1.1-0.1-1.4-0.2c0,0-0.1,0-0.1-0.1v-0.4c0-0.1,0-0.1,0.1-0.1
				c0.3,0.1,0.8,0.1,1.3,0.1c0.2,0,0.4-0.1,0.5-0.2c0.1-0.1,0.2-0.3,0.2-0.5c0-0.2-0.1-0.3-0.2-0.5c-0.1,0-0.2-0.1-0.5-0.2
				c-0.6-0.3-0.9-0.4-1-0.5c-0.3-0.2-0.4-0.5-0.4-0.9c0-0.4,0.1-0.7,0.4-1c0.3-0.2,0.6-0.4,1-0.4c0.6,0,1,0.1,1.3,0.2
				c0,0,0.1,0,0.1,0.1v0.4c0,0.1,0,0.1-0.1,0.1c-0.3-0.1-0.8-0.1-1.3-0.1c-0.2,0-0.4,0.1-0.5,0.2c-0.1,0.1-0.2,0.3-0.2,0.5
				c0,0.2,0.1,0.3,0.2,0.5c0.1,0.1,0.2,0.1,0.5,0.2c0.5,0.2,0.9,0.4,1,0.5c0.3,0.2,0.4,0.5,0.4,0.9C57.8,70,57.6,70.3,57.4,70.5"/>
		</g>
		<g class="st0">
			<path class="st1" d="M56.8,7.8c-0.7-1.5-1.6-2.9-2.8-4c-1.2-1.2-2.6-2.1-4.1-2.8c-1.6-0.7-3.2-1-5-1s-3.5,0.4-5,1.1
				c-1.6,0.7-3,1.7-4.2,2.9c-1.2-1.3-2.6-2.2-4.2-2.9C30,0.4,28.3,0,26.5,0c-1.8,0-3.4,0.3-5,1c-0.2,0.1-0.5,0.2-0.7,0.3
				c-1.3,0.6-2.4,1.4-3.4,2.4c-1,1-1.8,2.1-2.4,3.3c-0.1,0.2-0.2,0.5-0.4,0.7c-0.7,1.5-1,3.2-1,4.9v11.1h1.5c1.6,0,2.9-0.6,4-1.7
				c0.9-0.9,1.5-2.1,1.6-3.4v-6c0-0.1,0-0.3,0-0.4c0.1-1.4,0.6-2.6,1.6-3.6c1.1-1.1,2.5-1.7,4.1-1.7c0,0,0,0,0,0
				c1.5,0,2.9,0.6,4,1.7c1.1,1.1,1.7,2.4,1.7,4v40.4c0,0.4,0.2,0.9,0.5,1.2c0.3,0.4,0.8,0.6,1.3,0.6h3.5c0.5,0,0.9-0.2,1.3-0.6
				c0.3-0.4,0.5-0.8,0.5-1.2V12.8c0-1.6,0.6-2.9,1.7-4c1.1-1.1,2.4-1.7,4-1.7c1.6,0,3,0.6,4.1,1.7c1.1,1.1,1.7,2.4,1.7,4v40.4
				c0,0.4,0.2,0.9,0.5,1.2c0.3,0.4,0.8,0.6,1.3,0.6H56c0.5,0,0.9-0.2,1.3-0.6c0.3-0.4,0.5-0.8,0.5-1.2V12.8
				C57.8,11,57.4,9.3,56.8,7.8"/>
		</g>
		<g class="st0">
			<path class="st4" d="M27.9,12.8c0-1.8-0.3-3.4-1-4.9c-0.1-0.2-0.2-0.5-0.4-0.7c0,0,0,0,0,0c-1.6,0-3,0.6-4.1,1.7
				c-1,1-1.5,2.2-1.6,3.6c0,0.1,0,0.3,0,0.4v5.3c0,0.2,0,0.5,0,0.7c-0.1,1.3-0.7,2.5-1.6,3.4c-1.1,1.1-2.4,1.7-4,1.7h-1.5H9.5V7.1
				H15c0.6-1.2,1.4-2.3,2.4-3.3c1-1,2.1-1.8,3.4-2.4c-0.2-0.1-0.5-0.2-0.7-0.3c-1.6-0.7-3.2-1-5-1H5.9C4.9,0,4,0.3,3.4,1
				c-0.7,0.7-1,1.5-1,2.6v49.6c0,0.4,0.2,0.8,0.5,1.2c0.3,0.4,0.8,0.6,1.3,0.6h3.5c0.4,0,0.8-0.2,1.2-0.6c0.4-0.4,0.6-0.8,0.6-1.2
				V30.9h4.2h1.5c1.6,0,2.9,0.6,4,1.7c0.9,0.9,1.5,2.1,1.6,3.3c0,0.2,0,0.4,0,0.7v16.5c0,0.4,0.2,0.8,0.5,1.2
				c0.3,0.4,0.8,0.6,1.3,0.6h3.5c0.5,0,0.9-0.2,1.3-0.6c0.3-0.4,0.5-0.8,0.5-1.2V36.6c0-3.7-1.3-6.8-3.9-9.2
				c2.6-2.4,3.9-5.5,3.9-9.3V12.8z"/>
		</g>
		<g class="st0">
			<line class="st2" x1="2.4" y1="75" x2="57.8" y2="75"/>
		</g>
		<g class="st0">
			<rect x="2.4" y="74.8" class="st5" width="55.4" height="0.4"/>
		</g>
	</g>
</g>
</svg>
